<?xml version="1.0" standalone="no"?><!DOCTYPE svg PUBLIC "-//W3C//DTD SVG 1.1//EN" "http://www.w3.org/Graphics/SVG/1.1/DTD/svg11.dtd"><svg t="1754616673484" class="icon" viewBox="0 0 1024 1024" version="1.1" xmlns="http://www.w3.org/2000/svg" p-id="9715" xmlns:xlink="http://www.w3.org/1999/xlink" width="200" height="200"><path d="M889.2 277.5L526.7 68.2c-9-5.2-20.1-5.2-29.1 0L135 277.5c-9 5.2-14.5 14.8-14.5 25.3v418.6c0 10.3 5.5 20.1 14.5 25.3L497.5 956c4.5 2.6 9.6 3.8 14.5 3.8s10-1.3 14.5-3.8L889 746.6c9-5.2 14.5-14.8 14.5-25.3V302.8c0.2-10.5-5.3-20.1-14.3-25.3z m-43.7 427L512.1 897.1 178.7 704.5v-385l333.4-192.6 333.6 192.6-0.2 385z" p-id="9716"></path><path d="M497.6 258.2l-198 114.2c-9 5.2-14.5 14.8-14.5 25.3v228.8c0 10.3 5.5 20.1 14.5 25.3l198 114.2c4.5 2.6 9.6 3.8 14.5 3.8s10-1.3 14.5-3.8l198-114.2c9-5.2 14.5-14.8 14.5-25.3V397.7c0-10.3-5.5-20.1-14.5-25.3l-198-114.2c-8.9-5.3-20-5.3-29 0z m183.6 156.2v195l-169 97.7-169-97.5V414.4L512 316.9l169.2 97.5z" p-id="9717"></path></svg>