<?xml version="1.0" standalone="no"?><!DOCTYPE svg PUBLIC "-//W3C//DTD SVG 1.1//EN" "http://www.w3.org/Graphics/SVG/1.1/DTD/svg11.dtd"><svg t="1754464622508" class="icon" viewBox="0 0 1024 1024" version="1.1" xmlns="http://www.w3.org/2000/svg" p-id="3159" xmlns:xlink="http://www.w3.org/1999/xlink" width="200" height="200"><path d="M885.38 561.29l-0.57-0.33a377.31 377.31 0 0 0 0-97.92l0.57-0.33c47.63-27.5 64.1-89 36.6-136.61l-44-76.21c-27.5-47.63-89-64.1-136.6-36.6l-1.17 0.68A376 376 0 0 0 656 165.51V164c0-55-45-100-100-100h-88c-55 0-100 45-100 100v1.51A376 376 0 0 0 283.79 214l-1.17-0.68c-47.63-27.5-109.1-11-136.6 36.6l-44 76.22c-27.5 47.63-11 109.1 36.6 136.6l0.57 0.33a377.31 377.31 0 0 0 0 97.92l-0.57 0.33c-47.63 27.5-64.1 89-36.6 136.61l44 76.21c27.5 47.63 89 64.1 136.6 36.6l1.17-0.68A376 376 0 0 0 368 858.49V860c0 55 45 100 100 100h88c55 0 100-45 100-100v-1.51A376 376 0 0 0 740.21 810l1.17 0.68c47.63 27.5 109.1 11 136.6-36.6l44-76.22c27.5-47.6 11.02-109.07-36.6-136.57zM848.63 681l-22 38.1a50.15 50.15 0 0 1-68.3 18.31 41.4 41.4 0 0 0-48.83 5.93h-0.23a303.77 303.77 0 0 1-98.2 56.16A41.41 41.41 0 0 0 584 838.36 50.14 50.14 0 0 1 534 888h-44a50.14 50.14 0 0 1-50-49.64 41.39 41.39 0 0 0-26.27-38.53v-0.09a303.56 303.56 0 0 1-100.66-57.88h-0.16a41.43 41.43 0 0 0-47.54-4.33 50.14 50.14 0 0 1-68-18.47l-22-38.1a50.16 50.16 0 0 1 18-68.12 41.41 41.41 0 0 0 20.15-42.59h0.07a306 306 0 0 1 0-116.44h-0.08a41.41 41.41 0 0 0-19.83-42.43 50.14 50.14 0 0 1-18.31-68.3l22-38.1a50.15 50.15 0 0 1 68.3-18.31 41.41 41.41 0 0 0 47.26-4.51h0.16a303.83 303.83 0 0 1 99.57-57.49A41.41 41.41 0 0 0 440 186a50.15 50.15 0 0 1 50-50h44a50.14 50.14 0 0 1 50 50 41.39 41.39 0 0 0 28.43 39 303.76 303.76 0 0 1 98.47 57.1h0.16a41.41 41.41 0 0 0 47.26 4.51A50.15 50.15 0 0 1 826.63 305l22 38.1a50.14 50.14 0 0 1-18.31 68.3 41.41 41.41 0 0 0-19.67 43.35h-0.07a305.57 305.57 0 0 1 0.13 113.91h0.08a41.42 41.42 0 0 0 19.53 44A50.14 50.14 0 0 1 848.63 681z" p-id="3160"></path><path d="M563.74 318.86a199.32 199.32 0 0 0-151.73 20q-2.13 1.23-4.23 2.52c-0.69 0.42-1.37 0.85-2.05 1.28s-1.39 0.86-2.08 1.31c-0.92 0.59-1.82 1.19-2.72 1.79l-1.29 0.86c-1.06 0.72-2.1 1.45-3.14 2.18l-0.77 0.54c-1.16 0.83-2.3 1.66-3.43 2.51l-0.39 0.29q-1.84 1.38-3.64 2.79l-0.1 0.08a198.53 198.53 0 0 0-21.27 19.38l-0.12 0.13q-1.54 1.64-3.06 3.3l-0.38 0.43c-0.91 1-1.81 2-2.7 3.05l-0.71 0.83-2.28 2.71-1.05 1.3c-0.62 0.76-1.24 1.53-1.84 2.3l-1.42 1.83-1.4 1.84q-0.87 1.17-1.74 2.37l-1 1.36c-0.68 1-1.35 1.93-2 2.9l-0.62 0.9q-1.14 1.68-2.25 3.39l-0.32 0.49q-1.22 1.89-2.39 3.81l-0.09 0.14A198.33 198.33 0 0 0 328.28 433v0.12q-0.9 2.1-1.76 4.24l-0.17 0.45c-0.53 1.31-1 2.63-1.54 4-0.11 0.3-0.21 0.59-0.32 0.88-0.44 1.2-0.87 2.39-1.29 3.6-0.17 0.49-0.33 1-0.5 1.48-0.35 1-0.7 2.05-1 3.08-0.25 0.78-0.48 1.57-0.72 2.35s-0.48 1.54-0.71 2.31A199.36 199.36 0 0 0 338.82 612C394 707.63 516.33 740.39 612 685.18a36 36 0 0 0-36-62.34 128 128 0 0 1-187.58-144q0.41-1.5 0.84-3c0.14-0.5 0.3-1 0.46-1.5l0.45-1.48c0.22-0.67 0.44-1.33 0.67-2 0.1-0.31 0.2-0.62 0.31-0.93 0.27-0.77 0.55-1.54 0.83-2.31 0.07-0.18 0.14-0.37 0.2-0.56q0.48-1.27 1-2.55l0.11-0.27c0.36-0.91 0.74-1.82 1.13-2.73v-0.06a128.64 128.64 0 0 1 8.47-16.36l0.05-0.1c0.5-0.81 1-1.63 1.54-2.43a3.28 3.28 0 0 1 0.2-0.31c0.47-0.73 0.95-1.45 1.44-2.17l0.39-0.58c0.43-0.62 0.86-1.24 1.3-1.85l0.63-0.88c0.37-0.51 0.74-1 1.12-1.51s0.59-0.79 0.89-1.18l0.91-1.17 1.17-1.47 0.68-0.84c0.49-0.58 1-1.16 1.46-1.73 0.15-0.18 0.3-0.36 0.46-0.53 0.57-0.66 1.14-1.31 1.72-2l0.24-0.27c0.65-0.71 1.3-1.42 2-2.11l0.07-0.08a127.82 127.82 0 0 1 13.62-12.41h0.05q1.15-0.92 2.34-1.8l0.24-0.17c0.73-0.55 1.46-1.09 2.2-1.61l0.49-0.35 2-1.4 0.82-0.54c0.58-0.39 1.16-0.78 1.75-1.16l1.31-0.82 1.33-0.83c0.88-0.54 1.77-1.07 2.66-1.58A128 128 0 0 1 635.6 545.13a36 36 0 0 0 69.54 18.63c28.58-106.67-34.72-216.31-141.4-244.9z" p-id="3161"></path></svg>